<svg width="96" height="96" viewBox="0 0 96 96" fill="none" xmlns="http://www.w3.org/2000/svg">
<rect width="96" height="96" transform="translate(0 0)" fill="black"/>
<path d="M70.4205 58.0085C69.071 47.9588 60.9744 41.7443 47.196 41.7443C33.2401 41.7443 24.0426 48.2074 24.0781 58.7188C24.0426 66.8864 29.1918 72.1776 39.8452 74.3082L49.2912 76.1903C54.0497 77.1491 56.2159 78.8892 56.2869 81.6236C56.2159 84.8551 52.7003 87.1634 47.4091 87.1634C42.0114 87.1634 38.4247 84.8551 37.5014 80.4162L22.6222 81.1974C24.0426 91.6378 32.9205 98.0653 47.3736 98.0653C61.5071 98.0653 71.6278 90.8565 71.6634 80.0966C71.6278 72.2131 66.4787 67.4901 55.8963 65.3239L46.0241 63.3352C40.946 62.2344 39.0639 60.4943 39.0994 57.8665C39.0639 54.5994 42.7571 52.4688 47.4446 52.4688C52.7003 52.4688 55.8253 55.3452 56.571 58.8608L70.4205 58.0085Z" fill="white"/>
</svg>
