<?xml version="1.0" encoding="UTF-8"?>
<svg width="28px" height="28px" viewBox="0 0 28 28" version="1.1" xmlns="http://www.w3.org/2000/svg" xmlns:xlink="http://www.w3.org/1999/xlink">
    <!-- Generator: Sketch 43.2 (39069) - http://www.bohemiancoding.com/sketch -->
    <title>email</title>
    <desc>Created with Sketch.</desc>
    <defs></defs>
    <g id="Page-1" stroke="none" stroke-width="1" fill="none" fill-rule="evenodd">
        <g id="1-copy" transform="translate(-608.000000, -822.000000)" fill="#B4B4B4">
            <g id="footer" transform="translate(2.000000, 812.000000)">
                <path d="M620,31.7109375 C620.328125,31.7109375 620.642578,31.6289062 620.929688,31.4511719 L634,23.2753906 L634,36.25 C634,37.2207031 633.220703,38 632.25,38 L607.75,38 C606.779297,38 606,37.2207031 606,36.25 L606,23.2753906 L619.070312,31.4511719 C619.357422,31.6289062 619.685547,31.7109375 620,31.7109375 Z M611.25,20.5 L611.25,24.4921875 L606,21.2109375 L620.027344,10 L634,21.2109375 L628.75,24.4921875 L628.75,20.5 C628.75,19.5292969 627.970703,18.75 627,18.75 L613,18.75 C612.029297,18.75 611.25,19.5292969 611.25,20.5 Z M619.125,25.75 L620.875,25.75 C621.353516,25.75 621.75,26.1464844 621.75,26.625 C621.75,27.1035156 621.353516,27.5 620.875,27.5 L619.125,27.5 C618.646484,27.5 618.25,27.1035156 618.25,26.625 C618.25,26.1464844 618.646484,25.75 619.125,25.75 Z M625.25,23.125 C625.25,23.6035156 624.853516,24 624.375,24 L615.625,24 C615.146484,24 614.75,23.6035156 614.75,23.125 C614.75,22.6464844 615.146484,22.25 615.625,22.25 L624.375,22.25 C624.853516,22.25 625.25,22.6464844 625.25,23.125 Z" id="email"></path>
            </g>
        </g>
    </g>
</svg>